<svg width="285" height="185" viewBox="0 0 285 185" fill="none" xmlns="http://www.w3.org/2000/svg">
<path d="M10.2757 121.214L9.32143 123.143H6.10714L5.1529 121.214H1.97879C1.99888 121.164 2.00893 121.104 2.02902 121.054L4.15848 116.071H11.2701L13.3996 121.054C13.4196 121.104 13.4297 121.164 13.4498 121.214H10.2757ZM15.4286 121.516C15.4286 121.154 15.3181 120.622 15.1775 120.28L12.7868 114.735C12.6462 114.404 12.2444 114.143 11.8929 114.143H3.53571C3.18415 114.143 2.78237 114.404 2.64174 114.735L0.251116 120.28C0.110491 120.622 0 121.154 0 121.516V126.357C0 126.709 0.291295 127 0.642857 127H14.7857C15.1373 127 15.4286 126.709 15.4286 126.357V121.516Z" fill="#7E5AFF"/>
</svg>
