<svg width="285" height="185" viewBox="0 0 285 185" fill="none" xmlns="http://www.w3.org/2000/svg">
<path d="M9 173.036C9 172.855 8.85938 172.714 8.67857 172.714H8.03571C7.85491 172.714 7.71429 172.855 7.71429 173.036V176.571H5.46429C5.28348 176.571 5.14286 176.712 5.14286 176.893V177.536C5.14286 177.717 5.28348 177.857 5.46429 177.857H8.67857C8.85938 177.857 9 177.717 9 177.536V173.036ZM13.1786 176.571C13.1786 179.585 10.7277 182.036 7.71429 182.036C4.70089 182.036 2.25 179.585 2.25 176.571C2.25 173.558 4.70089 171.107 7.71429 171.107C10.7277 171.107 13.1786 173.558 13.1786 176.571ZM15.4286 176.571C15.4286 172.312 11.9732 168.857 7.71429 168.857C3.45536 168.857 0 172.312 0 176.571C0 180.83 3.45536 184.286 7.71429 184.286C11.9732 184.286 15.4286 180.83 15.4286 176.571Z" fill="#7E5AFF"/>
</svg>
