<svg width="285" height="185" viewBox="0 0 285 185" fill="none" xmlns="http://www.w3.org/2000/svg">
<path d="M14.1429 68.0268C14.1429 67.9565 14.1429 67.8862 14.1127 67.8158C14.0424 67.6049 13.5502 67.3839 13.3493 67.2835C12.7768 66.9621 12.1942 66.6507 11.6317 66.3192C11.3705 66.1585 11.0491 65.8571 10.7377 65.8571C10.125 65.8571 9.23103 67.6752 8.68862 67.6752C8.41741 67.6752 8.06585 67.4241 7.82478 67.2835C5.99665 66.269 4.73103 65.0033 3.71652 63.1752C3.57589 62.9342 3.32478 62.5826 3.32478 62.3114C3.32478 61.769 5.14286 60.875 5.14286 60.2623C5.14286 59.9509 4.84152 59.6295 4.6808 59.3683C4.34933 58.8058 4.03795 58.2232 3.71652 57.6507C3.61607 57.4498 3.39509 56.9576 3.18415 56.8873C3.11384 56.8571 3.04353 56.8571 2.97321 56.8571C2.61161 56.8571 1.90848 57.0179 1.57701 57.1685C1.08482 57.3795 0.763393 57.942 0.512277 58.394C0.190848 58.9866 0 59.5893 0 60.2623C0 61.1964 0.381696 62.0402 0.69308 62.894C0.914063 63.5067 1.18527 64.0993 1.52679 64.6518C2.58147 66.3594 4.64062 68.4185 6.34821 69.4732C6.90067 69.8147 7.4933 70.0859 8.10603 70.3069C8.95982 70.6183 9.80357 71 10.7377 71C11.4107 71 12.0134 70.8092 12.606 70.4877C13.058 70.2366 13.6205 69.9152 13.8315 69.423C13.9821 69.0915 14.1429 68.3884 14.1429 68.0268Z" fill="#7E5AFF"/>
</svg>
